{
  "accessors": [
    {
      "bufferView": 2,
      "byteOffset": 0,
      "componentType": 5126,
      "count": 1742,
      "max": [1, 1, 1, 1],
      "min": [
        5.692175545846112e-5, 0.006584956776350737, 0.006584956776350737, 1
      ],
      "name": "accessor_color_m0-PolyPaper5_-29278",
      "type": "VEC4"
    },
    {
      "bufferView": 0,
      "byteOffset": 0,
      "componentType": 5123,
      "count": 2460,
      "max": [1741],
      "min": [0],
      "name": "accessor_indices_0_m0-PolyPaper5_-29278",
      "type": "SCALAR"
    },
    {
      "bufferView": 1,
      "byteOffset": 20904,
      "componentType": 5126,
      "count": 1742,
      "max": [0.9995952, 0.9975615, 0.9992022],
      "min": [-0.9995952, -0.999994, -0.9990689],
      "name": "accessor_normal_m0-PolyPaper5_-29278",
      "type": "VEC3"
    },
    {
      "bufferView": 1,
      "byteOffset": 0,
      "componentType": 5126,
      "count": 1742,
      "max": [0.6205508, 0.8374911, -0.2000256],
      "min": [-0.08721155999999999, 0.1386454, -0.6727321000000001],
      "name": "accessor_position_m0-PolyPaper5_-29278",
      "type": "VEC3"
    }
  ],
  "asset": {
    "copyright": "Unknown",
    "extras": {
      "GOOGLE_processor_version": 294144208
    },
    "generator": "glTF 1-to-2 Upgrader for Google Blocks",
    "version": "2.0"
  },
  "bufferViews": [
    {
      "buffer": 0,
      "byteLength": 4920,
      "byteOffset": 0,
      "name": "ushortBufferView",
      "target": 34963
    },
    {
      "buffer": 0,
      "byteLength": 41808,
      "byteOffset": 4920,
      "byteStride": 12,
      "name": "vec3BufferView",
      "target": 34962
    },
    {
      "buffer": 0,
      "byteLength": 27872,
      "byteOffset": 46728,
      "byteStride": 16,
      "name": "vec4BufferView",
      "target": 34962
    }
  ],
  "buffers": [
    {
      "byteLength": 74600,
      "name": "model",
      "uri": "model.bin"
    }
  ],
  "cameras": [
    {
      "perspective": {
        "yfov": 0.7853981633974483,
        "znear": 0.1000000014901161
      },
      "type": "perspective"
    }
  ],
  "extensions": {
    "KHR_lights_punctual": {
      "lights": [
        {
          "color": [1, 0.9333333333333333, 0.8666666666666667],
          "intensity": 0.25,
          "name": "headLight",
          "type": "directional"
        },
        {
          "color": [1, 0.9333333333333333, 0.8666666666666667],
          "intensity": 0.324999988079071,
          "name": "keyLight",
          "type": "directional"
        }
      ]
    }
  },
  "extensionsUsed": [
    "GOOGLE_backgrounds",
    "GOOGLE_camera_settings",
    "KHR_lights_punctual"
  ],
  "extras": {
    "GOOGLE_initial_camera_motion": {
      "motionPath": "FULL_ROTATION"
    },
    "GOOGLE_lighting_rig": {
      "disableShadows": false
    }
  },
  "materials": [
    {
      "alphaMode": "OPAQUE",
      "doubleSided": false,
      "name": "BlocksPaper",
      "pbrMetallicRoughness": {
        "baseColorFactor": [1, 1, 1, 1],
        "metallicFactor": 0,
        "roughnessFactor": 0.6
      }
    },
    {
      "alphaMode": "BLEND",
      "doubleSided": false,
      "name": "BlocksGlass",
      "pbrMetallicRoughness": {
        "baseColorFactor": [0.2, 0.2, 1, 0.3],
        "metallicFactor": 1,
        "roughnessFactor": 0.4
      }
    },
    {
      "alphaMode": "OPAQUE",
      "doubleSided": true,
      "name": "BlocksGem",
      "pbrMetallicRoughness": {
        "baseColorFactor": [1, 0.4, 1, 1],
        "metallicFactor": 0,
        "roughnessFactor": 0.1
      }
    }
  ],
  "meshes": [
    {
      "name": "mesh_m0-PolyPaper5_-29278",
      "primitives": [
        {
          "attributes": {
            "COLOR_0": 0,
            "NORMAL": 2,
            "POSITION": 3
          },
          "indices": 1,
          "material": 0,
          "mode": 4
        }
      ]
    }
  ],
  "nodes": [
    {
      "mesh": 0,
      "name": "node_MeshObject388685824-PolyPaper5"
    },
    {
      "children": [2]
    },
    {
      "children": [3],
      "extras": {
        "isTransformNode": 1
      },
      "translation": [0.2296642803681812, 0.4580717906082968, -0.44231968897579]
    },
    {
      "children": [0],
      "translation": [
        -0.2296642803681812, -0.4580717906082968, 0.44231968897579
      ]
    },
    {
      "camera": 0,
      "children": [5],
      "rotation": [
        -0.2110830402622219, 0.1947113586600235, 0.0429507926249455,
        0.9569151824144676
      ],
      "translation": [0.663981063444032, 1.018546061205588, 0.5660734619676584]
    },
    {
      "extensions": {
        "KHR_lights_punctual": {
          "light": 0
        }
      },
      "extras": {
        "isHeadLight": 1
      },
      "name": "headLightNode",
      "translation": [
        -0.5281852438163426, 0.2640926219081713, 0.2640926219081713
      ]
    },
    {
      "extensions": {
        "KHR_lights_punctual": {
          "light": 1
        }
      },
      "extras": {
        "isKeyLight": 1
      },
      "name": "keyLightNode",
      "rotation": [
        -0.7505326882858236, -0.3752663441429118, 0, 0.5439447166468927
      ],
      "scale": [0, 0, 0.5334670962545061],
      "translation": [
        -0.3052841530411942, 1.440988954619314, -0.9660999414789615
      ]
    }
  ],
  "scene": 0,
  "scenes": [
    {
      "extensions": {
        "GOOGLE_backgrounds": {
          "color": [0.8313725490196079, 0.5333333333333333, 0.5333333333333333]
        },
        "GOOGLE_camera_settings": {
          "pivot": [0.2279341600474121, 0.501084789623212, -0.461046730313369]
        }
      },
      "extras": {
        "GOOGLE_camera_index": {
          "cameraIndex": 0,
          "nodeIndex": 4
        },
        "GOOGLE_geometry_data": {
          "stats": {
            "centroid": [
              0.2281829432133119, 0.3740547621103023, -0.4326328452244555
            ],
            "radius": 0.5281852438163426,
            "stdev": 0.28793747856051
          },
          "visualCenterPoint": [
            0.2296642803681812, 0.4580717906082968, -0.44231968897579
          ]
        },
        "GOOGLE_hemi_light": {
          "groundColor": [
            0.8313725490196079, 0.5333333333333333, 0.5333333333333333
          ]
        }
      },
      "name": "defaultScene",
      "nodes": [1, 4, 6]
    }
  ]
}
